<?xml version="1.0" encoding="iso-8859-1"?>
<!-- Generator: Adobe Illustrator 19.0.0, SVG Export Plug-In . SVG Version: 6.00 Build 0)  -->
<svg version="1.1" id="Capa_1" xmlns="http://www.w3.org/2000/svg" xmlns:xlink="http://www.w3.org/1999/xlink" x="0px" y="0px"
	 viewBox="0 0 409.2 409.2" style="enable-background:new 0 0 409.2 409.2;" xml:space="preserve">
<g>
	<g>
		<g>
			<path d="M235.2,249c5.2,0,10-2,13.6-5.6c3.6-3.6,5.6-8.4,5.6-13.6s-2-10-5.6-13.6c-3.6-3.6-8.4-5.6-13.6-5.6
				c-5.6,0-10.4,2-13.6,5.6c-3.6,3.6-5.6,8.4-5.6,13.6s2,10,5.6,13.6C225.2,247,230,249,235.2,249z M233.2,227.4
				c0.4-0.4,1.2-0.8,2-0.8s1.6,0.4,2,0.8c0.4,0.8,0.8,1.2,0.8,2s-0.4,1.6-0.8,2c-0.4,0.4-1.2,0.8-2,0.8s-1.6-0.4-2-0.8
				c-0.4-0.4-0.8-1.2-0.8-2S232.8,227.8,233.2,227.4z"/>
			<path d="M401.2,17.8c-4.4,0-8,3.6-8,8v36.8h-59.6V25.8c0-4.4-3.6-8-8-8c-4.4,0-8,3.6-8,8v36.8V63H254c-3.2,0-6.4,2-7.6,5.6
				l-13.2,44C224,110.2,214,109,204,109s-20,1.2-29.2,3.6l-13.2-44c-0.8-3.2-4-5.6-7.6-5.6H91.6V26.2c0-4.4-3.6-8-8-8
				c-4.4,0-8,3.6-8,8V63H16V26.2c0-4.4-3.6-8-8-8c-4.4,0-8,3.6-8,8v44c0,4.4,3.6,8,8,8h76h64.8l11.6,38.8c-14.8,6-28,14.8-39.2,26
				c-1.6,1.6-3.6,3.6-5.2,5.6c-1.2-2.8-3.2-5.6-5.6-8.4c-12.4-14-38.4-24.8-84.8-20.8c-4.4,0.4-7.6,4.4-7.2,8.8
				c0,1.2,0.4,2.4,1.2,3.6c21.6,40.8,44.8,56.8,62.8,59.6c3.6,0.8,6.8,0.8,9.6,0.4c-3.2,11.2-5.2,22.8-5.2,35.2v55.2
				c0,30.4,12.4,58.4,32.4,78.4c15.2,15.2,34.4,26,56.4,30.4c0.8,0,1.6,0.4,2.4,0.4h0.8h0.8h0.8h0.8h0.8h0.8h0.8h1.2h0.4h0.8h0.8
				h0.8h0.8h0.4h0.8h0.4h1.2h1.2c0.4,0,0.8,0,1.2,0h0.4h1.2h0.4h0.4h1.2h15.2h1.2h0.4h0.4h1.2h0.4h1.2h1.2h1.2h0.4h0.8h0.4h0.8h0.8
				h0.8h0.8h0.4h1.2h0.8h0.8h0.8h0.8h0.8h0.8h0.8c0.8,0,1.6-0.4,2.4-0.4c21.6-4.4,41.2-15.2,56.4-30.4c20-20,32.4-48,32.4-78.4
				v-54.8c0-12.4-1.6-24-5.2-35.2c3.2,0,6.4,0,9.6-0.4c18-2.8,41.6-18.8,62.8-59.6c0.8-0.8,1.2-2.4,1.2-3.6c0.4-4.4-2.8-8.4-7.2-8.8
				c-46.4-4-72.8,6.8-84.8,20.8c-2.4,2.8-4.4,5.6-5.6,8.4c-1.6-2-3.2-3.6-5.2-5.6c-11.2-11.2-24.4-20-39.2-26l12-38.8h64.4h75.6
				c4.4,0,8-3.6,8-8V25.8C409.2,21.4,405.6,17.8,401.2,17.8z M101.6,169c-2.8,4.8-8.8,8-16.8,6.8c-12.4-2-28.8-13.2-45.2-40.8
				c32-0.8,50.4,6.8,58.8,16c4.8,6,5.6,12.8,3.2,17.6V169z M279.2,349C264,363.8,244,373.8,222,376.2h-0.4c-0.4,0-1.2,0-2,0h-1.2
				h-0.8h-0.4h-0.8h-1.2h-0.4h-1.2h-1.2h-15.2H196h-1.2h-0.4h-1.2h-0.8H192h-0.8H190c-0.4,0-1.2,0-2,0h-0.4
				c-22.4-2-42.4-12.4-57.2-27.2c-2.4-2.4-4.8-5.2-7.2-8c6.8-8.4,14.8-16,23.6-22.4c8.4-5.6,17.6-10,27.2-13.2
				c0.4,1.2,1.2,2,1.6,3.2v0.4c2,3.2,4,6,6.8,8.4c10.4,9.2,21.2,8.4,22,8.4c11.6,0.4,25.6-7.2,31.2-20.8c10,3.2,19.2,7.6,27.2,13.6
				c9.2,6,16.8,13.6,23.6,22.4C284,343.8,281.6,346.6,279.2,349z M187.2,292.2c0-4.8,2-9.2,5.2-12.4c3.2-3.2,7.6-5.2,12.4-5.2
				s9.2,2,12.4,5.2s4.8,7.6,4.8,12.4c0,7.6-6.4,17.2-16.4,17.2c-10.8,0-14.4-4.8-16.8-10.4C187.6,296.6,187.2,294.2,187.2,292.2z
				 M311.6,151c8-9.2,26-16.8,58.4-16c-16.8,27.6-32.8,38.8-45.2,40.8c-7.6,1.2-14-2-16.4-6.8v-0.4C305.6,163.4,306.4,157,311.6,151
				z M276.8,154.6c18.4,18.8,30,44.4,30,72.4v55.2c0,16-4,31.6-11.2,44.8c-6.8-8-14.8-15.6-23.6-21.6c-10.4-7.2-22-12.8-34-16.4
				c-0.8-8-4.4-15.2-9.6-20.4c-6-6.4-14.4-10-23.6-10s-17.6,3.6-24.4,9.6c-5.2,5.2-8.8,12.4-9.6,20.4c-12.4,3.6-23.6,9.2-34,16.4
				c-8.8,6-16.8,13.2-23.6,21.6c-7.2-13.2-11.2-28.8-11.2-44.8V227c0-28.4,11.6-54,30-72.4c18.8-18.4,44.4-30,72.4-30
				C232.8,124.6,258.4,136.2,276.8,154.6z"/>
			<path d="M174.4,210.6c-5.2,0-10,2-13.6,5.6c-3.6,3.6-5.6,8.4-5.6,13.6s2,10,5.6,13.6c3.6,3.6,8.4,5.6,13.6,5.6s10-2,13.6-5.6
				c3.6-3.6,5.6-8.4,5.6-13.6s-2-10-5.6-13.6C184.4,212.6,179.6,210.6,174.4,210.6z M176.8,231.4c-0.4,0.4-1.2,0.8-2,0.8
				s-1.6-0.4-2-0.8c-0.4-0.4-0.8-1.2-0.8-2s0.4-1.6,0.8-2c0.4-0.4,1.2-0.8,2-0.8s1.6,0.4,2,0.8c0.4,0.8,0.8,1.2,0.8,2
				S177.2,231,176.8,231.4z"/>
		</g>
	</g>
</g>
<g>
</g>
<g>
</g>
<g>
</g>
<g>
</g>
<g>
</g>
<g>
</g>
<g>
</g>
<g>
</g>
<g>
</g>
<g>
</g>
<g>
</g>
<g>
</g>
<g>
</g>
<g>
</g>
<g>
</g>
</svg>
