<svg version="1.0" xmlns="http://www.w3.org/2000/svg" viewBox="0 0 215 204"><path d="M200 76c-15-3-31 0-47-1l-9 3c-8-1-17-2-25-1l-10-1-15-1c-4-1-9-1-12-3-2-1-6 0-7 1l-3 3-1 6-2 2-1 8-2 8c0 1 1 2 3 2v1c-1 1 1 2 3 1 1 8 0 15 4 22l1 1v3l4 1h1l-1 2 3 1c4 0 7 1 8 4 1 2 8 1 9-1l2-1 4-2 8 2 23 1c10-1 20 0 29 3 5 1 12 0 15-4l2-6c6-6 13-12 16-20l1-16 3-15c0-2-2-3-4-3zm-19 14v-1l1 3-1-2zm-53-5h2l-2 1v-1zM167 151a28 28 0 01-8 0l-17-3c-8-1-17 3-24-1-3-1-10 2-9 3l3 2h1c6 7 19 9 29 9 9 0 22-1 28-8 2-2-2-2-3-2zm-8 4h-1l-3 1 3-1h1z" fill="#f9f1e5"/><path d="M36 66l-2 1-5-1-2-1h-6c-1-2-8 0-9 2l-2 6-2 2v3l1 7h4c0 2 4 1 6 0 1 1 5 0 5-1l5-3c5-3 10-7 11-12v-1c1-1-2-2-4-2zM210 62c2-2 2-4-2-5h-4v-1l-4-1c1-3-3-3-7-2-2-2-9-1-11 1h-1-4c2-4-6-4-9-3l-3 2h-5c-1-1-4-2-6-1-6-2-14-1-19 1h-4l-13 1-1-1-10-1v-1c0-3-5-3-7-2-7 1-13 2-19 5l-2 2-5 1c-4 1-9 3-8 4 2 3 5 5 8 6v1l3 2-5 2c5 2 9 2 14 2l9-1h2l-1 2 2 1 9-1v1l4 1a43 43 0 009-2h6c-1 1-1 2 1 2l21-1c7 2 17 1 25-2h3l-2 2 2 1c6 0 12-1 17-3 0 2 10-1 11-1h1l7-3c1-4 0-6-2-8zM209 89c-2-1-9 1-9 3l2 16a196 196 0 01-3 11l-1 1c-6 5-11 11-15 18l-4 1-4 3c-4-2-9-3-14-3l-7-1-6-1c1 0 2-1 0-1l-10-1h-8l-2 1h-4-1c-5-1-9 0-13 1-1 0-5 3-1 3l4-1-1 1h-3c-1 0-8 1-7 3v1l-3 1h-2v-2c0-2-5-1-7 0l1-4-3-1-1-2h-4c-2-2-3-5-3-7v-1l-1-1-2-1-1-5-1-10c0-4-3-6-4-9-3-6-3-13-1-18 1-2-12-1-13 2-1 6-2 14 1 20 3 4 5 7 5 12 0 4 0 8 2 12 1 2 3 2 6 2l5 10 3 1v1l-1 1v3h5l5-1v1l6-1c-3 1-1 1 0 1h1l-2 1-8 14h4l-1 2c0 2 8 0 9-1l2-2v1h1v2l3 1c2 3 1 7-2 9s6 1 6 1a104 104 0 008-3 75 75 0 004 3v2l2 1-1 3 3 1 1 1h5l1 2h3v2h2l1 3h6v1l2 1-1 2v1c-2 1 1 1 3 1h1c1 1 7 0 8-2l3-1h1l1-1 2-2h1c1-1 0-1-2-1v-1l-2-1 3-2 1-1 5-2 5-4 2-1 8-6 3-2v-1a33 33 0 008-3l3-3-1-1h1l4-10 1-1v-4a587 587 0 011-8l2-7c2-5 6-10 7-16 1-3 0-7-1-10 2-6 3-13-2-17zm-97 56h6v1l4 1c2 1 5 0 7-1 7 5 17 5 26 5l3-1c4 0 9 0 13-2l1 2 2 1-5 7v1l-17 1-11-2h-2l-15-2-6-2h-4l-2-2v-7z" fill="#fff"/><g><path d="M209 53c0-2-1-3-3-5l-9-17c-2-5-5-11-10-16-10-8-27-12-40-13-15-2-33 0-49 3a63 63 0 00-32 17l-2 3-6 2-22 15a165 165 0 00-12 16c0 5 8 6 12 5 7-2 11-6 16-10l1-1 23-10-3 11c0 3 6 3 8 2l5-2h9l3-1 3 1c1 2 6 1 9 0 1 3 6 2 8 1h9c0 4 4 4 7 3l7-1h2c2 1 7 0 9-1 1 2 5 2 7 1l7-2c-1 4 3 3 7 3 2 1 5 0 7-1l3-1c1 4 8 2 10 0l3-2 2 4c2 3 12 0 11-4z" fill="#ed1c24"/><path d="M207 50a55 55 0 00-1-3c-9-20-31-43-56-43l-8 2c-2 1-2 2 0 2 13 0 25 8 33 16 7 6 13 14 17 22l-18 2c-9 1-19-4-28-2l-7 3-12-3c-6 0-15 3-19-2-2-2-9-1-11 2l-7-1c-3-4-5-7-5-12l-6-1h-1c0-2 2-4 4-6 5-4-6-6-10-3-3 3-5 6-6 10l-8 1c-2 1-2 2 1 2h1c-12 7-23 15-32 25-5 5 6 5 9 2 10-8 23-13 34-19l1 6-4 2c-2 1-2 2 1 3 6 0 13-1 18-4h13c4 3 10 3 15 3h11c5 1 9 3 14 2l9-3 16 2c10 1 20-2 30-2h1c0 2 12-1 11-3zM142 2c-8-2-17 0-25 1-2 0-6 1-7 3-1 1 4 1 4 1 7-1 13-3 19-1 2 1 6 0 8-1 1-1 4-2 1-3z" fill="#bf1622"/><path d="M202 66l-1 1h-4l-12 1c-1-2-7 0-9 1h-6c1-3-4-2-7-1h-7l-1 1a13 13 0 00-7-2l-4-1c-2 0-5 0-7 2l-3-1-4-1-4 1v-1c0-3-7 0-10 1 0-2-4-1-7-1h-8c-5-2-10-1-15 1h-1c-1-2-4-1-6-1-4 1-2-5-1-6 1-2-2-2-3-2h-1l1-2c2-2-2-2-3-2-3 0-6 0-8 2l-3 5 4 2h1l-1 4v1c3 3 6 3 10 3l3 3c2 2 7 0 10-1l10 1 6-1v2c0 2 7 1 8 0l5-2-1 3c-1 1 1 1 2 2 5 0 10 0 14-3l6-1c4 3 10 3 16 1h3c-1 2 4 2 5 2l7-1 6-1h6c4 3 10 3 15 1h1l14-8c5-4-6-4-9-2zM31 70l6-3-1-2-4-1v-1h-4c-6 0-24 5-18 13l-2 5c-1 1 3 1 3 1l6-1-2 1-1 4 3 1 7-2 9-9c2-2-2-2-3-2l-5 1 6-5z" fill="#d7f7ff"/><path d="M70 74l-6 2c-6 4-8 10-11 16 0 1 8 0 9-2 3-5 5-11 10-15 2-1-1-1-2-1zM143 187l-3-2-1-3c0-3-6-2-7-1l-5 5c-2-4-2-8-5-11l-4-1-1-2c-1-2-4-2-6-1l-6 4v-11c1-2-3-3-5-2l-10 4c2-6 5-12 5-19 1-3-4-2-6-2l-4 2h-4c-5-6-7-12-8-20-1-9-4-17-3-26 0-4-9-3-10 1 0 9 3 18 4 27s5 16 10 23l2 1-1 3c-2 4 6 4 8 2l2-3-5 16c-1 3 3 3 5 3l11-5v16c1 3 7 2 9 0l5-6c1 2 4 2 5 2l6 12c1 2 5 1 7 0l4-3c1 2 2 2 3 2l1 5c-1 4 8 3 9 0l2-7c0-2-2-3-4-3z" fill="#f4f4f4"/><path d="M139 133c-7-1-13 0-19 1-7-2-15 2-21 6-2 2-1 3 0 3v1c-2 3 7 2 9 0 2-5 7-4 12-4 1 0 6-1 6-3l7 1c3 0 11-4 6-5zM207 77c0-2-9 0-9 3 2 12 2 25-4 36-5 9-14 16-16 26-1 3 8 2 9-1 2-10 12-17 16-26 6-12 6-25 4-38z" fill="#f4f4f4"/></g><g fill="#231f20"><path d="M206 74l3-1c2-1 6-4 6-7s-3-6-5-8c-4-18-17-37-34-48-16-9-39-6-57-6-10 0-19 0-28 3-9 2-17 7-25 12-17 12-35 25-45 42-6 0-10 2-13 6-1 1 0 2 1 2l-6 6 2 1h3l-2 8c0 2 2 2 3 1l4-2v4l3 3 2 1c9-3 19-10 21-18v-7c9-12 23-19 37-25-1 4-2 8-5 12l-2 1c-6-2-11 5-10 10 1 4 5 6 10 8h-1c-7 8-14 16-17 26h3l5-3-1 7h1c0 6-3 11-1 17h4l-1 7v1c5 4 4 10 4 15h1c5 1 4 6 4 8l2 1h1c0 4-1 7-3 11h3l9-6c-1 6-4 12-4 19h2l13-6 1 20h3l7-5c3-2 6-6 9-3 4 4 6 10 9 15 1 1 3 0 4-1l5-4 6 11h3c3-2 7-4 9 0l3 1c10-5 14-14 20-23 7 1 17-6 21-11l3-1c5-7 9-14 10-23h1c0-4 0-8-2-12 2-3 2-5 2-7l4-1 1-7 1-1c3-8-1-17-2-25-1-6 0-13-5-18zM34 76c-2 4-10 10-15 12-2-2-2-5-2-7s-2-2-3-1l-4 2 2-7c1-1 0-2-1-2l-3 1c2-3 4-4 7-5 1-1 1-3-1-3h-1l7-3h3c2 0 3-1 4 1h2c4-1 5 0 6 2l-2 3h2l-1 7zm50-53l-4 1-3 15c-15 7-29 14-40 24-1-1-4-2-7-1-2-2-3-2-5-2 10-15 25-27 41-37 7-5 14-10 23-13 9-4 19-3 29-4 18 0 39-2 55 6 8 5 15 13 20 19 6 7 10 15 12 23l-1-1h-2c-3 0-7-2-11-1l-11 1-15 1c-6 0-12 0-18-3l-3 1c-7 4-19 2-27 1l-15-2c-8 0-19-1-26 3h-1c5-10 7-20 9-31zM63 62c0-2 1-9 5-6l2-1v1c-1 2 3 1 3 0l1-1h2l9-2h25c11 1 25 5 35 0 8 4 18 1 28 2l16-2 11 1 3 4h2l1 1 1 1c3 3 6 7 1 12l-3 2-1-1h-2l-2 2c-7 1-15-1-20-1l-28 2-29-1-27-1-20-2 1-1c1-2-3-2-4-1v1l-2-1c-4-1-7-4-8-8zm127 61l-3 1-2 5-5 4-2 4c-1 3-4 2-7 2-8-2-16-5-25-6h-38l-5 4-6 4-2-3c-4-1-5-2-7-5h-3l-3 1-2-8-2-1h-2c-1-7 2-14-1-21l-3-1-2 1c-1-11 0-21 5-31 11 2 23 3 34 3l38 1c13 1 26-1 40-1h13c-2 7-1 15-1 22-1 4-1 25-9 25zm19-7l-1 1-1 6v-1c-1 0-4 0-4 2v6l-2 2v2l1 1a29 29 0 011 10c-1 8-5 14-9 21-1-1-3 0-3 1-2 4-13 13-18 11l-3 1c-6 7-10 17-18 21-3-5-8-3-12 0l-7-12-3 1-5 4c-3-5-5-13-11-15s-12 5-16 8c-1-6 0-13-2-20h-3l-11 7c0-7 4-14 4-21l-4 1-7 5 2-9h-3c1-1-1-6-1-7-3-2-4-1-4-5 0-3 0-6-2-9s-1-6-1-10h-1c-5 0-4-5-3-8l1-10h-1l2-9h-4l-4 4c3-9 9-16 15-23l1 1c-6 10-7 22-6 33l3 1 3-1c2 7-1 14 0 21l2 1h2c1 3 1 6 3 8h3l3-1 9 8 2 1 12-8c3-2 10-1 14-1 13-1 28 1 41 5 5 1 12 3 16 0 3-1 3-4 5-6 4-2 5-5 7-9 8-1 10-12 11-18l1-30c4 4 3 12 4 17 1 8 5 15 2 22z"/><path d="M173 148h-3c-11 6-24-2-35-1-6 0-11 1-16-1h-10l-1 1-2 1c8 14 26 14 42 14 10 0 29-2 25-14zm-27 12c-14 1-29-1-37-13h1c4-1 9 2 13 2h21c9 2 17 4 26 1 1 11-15 10-24 10z"/></g></svg>