<?xml version="1.0" encoding="iso-8859-1"?>
<!-- Generator: Adobe Illustrator 19.0.0, SVG Export Plug-In . SVG Version: 6.00 Build 0)  -->
<svg version="1.1" id="Capa_1" xmlns="http://www.w3.org/2000/svg" xmlns:xlink="http://www.w3.org/1999/xlink" x="0px" y="0px"
	 viewBox="0 0 408.8 408.8" style="enable-background:new 0 0 408.8 408.8;" xml:space="preserve">
<g>
	<g>
		<g>
			<path d="M274.8,63.6c-14.8-12.4-32-21.6-51.2-26.8c-4.4-1.2-8.8,1.2-10,5.6c-1.2,4.4,1.2,8.8,5.6,10c16.8,4.8,32,12.8,44.8,23.2
				c13.2,11.2,23.6,24.8,31.2,40.4c2,4,6.8,6,10.8,4s6-6.8,4-10.8C301.6,91.6,289.6,76,274.8,63.6z"/>
			<path d="M199.6,32.8c-2,0-4-0.4-6-0.4c-2.4,0-4.4,0-6,0c-4.4,0-8,3.6-8,8c0,4.4,3.6,8,8,8c2.4,0,4,0,5.2,0c1.6,0,3.6,0.4,5.2,0.4
				c4.4,0.4,8.4-2.8,8.8-7.2C207.2,37.2,204,33.2,199.6,32.8z"/>
			<path d="M230.4,302.4h-42.8h-42.8c-4.4,0-8,3.6-8,8c0,14,5.6,26.8,14.8,36c9.2,9.2,22,14.8,36,14.8s26.8-5.6,36-14.8
				c9.2-9.2,14.8-22,14.8-36C238.4,306,234.8,302.4,230.4,302.4z M212.4,335.2c-6.4,6.4-15.2,10.4-24.8,10.4
				c-9.6,0-18.4-4-24.8-10.4c-4.4-4.8-7.6-10.4-9.2-16.8h34h34C220,324.8,216.8,330.8,212.4,335.2z"/>
			<path d="M396,210c-2.4-2.8-5.6-5.2-8.8-7.2c0-54.8-22.4-104.8-57.6-140.4c-35.6-36-85.2-58-140-58.4c-0.4,0-0.8,0-1.2,0
				c-45.2,0-86.4,18.4-116,48c-28.4,28.4-46,66.8-48,109.2c-5.6,1.2-10.8,4.4-14.8,8.4c-6,6-9.6,14-9.6,22.8s3.6,16.8,9.6,22.8
				c4,4,9.2,6.8,14.8,8.4v17.2c0,42.4,16.4,81.2,42.8,110.4c0.4,0.8,0.8,1.2,1.2,1.6c0.4,0.8,0.8,1.2,1.2,1.6
				c0.4,0.4,0.8,0.8,1.2,1.2c0.8,0.8,1.2,1.2,1.6,1.6c26.4,26.4,61.6,44,101.2,47.6c0.8,0,1.2,0,2,0c0.8,0,1.2,0,2,0
				c0.8,0,1.2,0,2,0c0.8,0,1.2,0,2,0c0.8,0,1.2,0,2,0c0.4,0,1.2,0,2,0c0.4,0,1.2,0,2,0c0.4,0,1.2,0,2,0c45.2-0.8,84.8-19.2,113.6-48
				c10-10,18.8-21.2,26-33.6c7.2-12.4,12.8-25.6,16.8-39.6c0.8,0.4,2,0.8,2.8,1.2c4.8,1.6,9.6,2.4,14.4,2.4c12.8,0,24-4.8,32.4-13.2
				c8-8.4,13.2-20,13.2-32.4C408.8,229.2,404,218.4,396,210z M83.2,62.8c25.2-25.2,59.6-41.6,98-43.2c0.4,0,1.2,0,1.6,0
				c0.8,0,2.4,0,4.8,0c50.8,0,96.8,20.4,129.6,53.2c26,26,44,60,50.8,97.6c-0.4-0.4-1.2-1.2-1.6-1.6c-4-4-9.2-6.8-14.8-8.4
				c-0.4-4.4-0.8-8.8-1.2-13.6c-0.8-6.8-2.4-13.6-4-20.4c-0.8-4-5.2-6.8-9.6-5.6c-4,0.8-6.8,5.2-5.6,9.6c1.6,6,2.8,12.4,3.6,18.4
				c0.4,3.6,0.8,7.2,0.8,10.8h-296C42,122,58,88,83.2,62.8z M316.8,314c-6.4,11.2-14.4,21.6-23.6,30.8
				c-26.4,26.4-62.8,43.2-102.8,43.6c-0.8,0-1.2,0-2,0c-0.8,0-1.2,0-2,0c-0.8,0-1.2,0-2,0c-0.8,0-1.2,0-2,0c-0.8,0-1.2,0-2,0
				c-0.8,0-1.2,0-2,0c-0.8,0-1.2,0-2,0c-0.8,0-1.2,0-2,0c-35.2-3.2-67.2-18.8-91.2-42.8c-0.8-0.8-1.6-1.6-2.4-2.4L80,342l-0.8-0.8
				l-0.4-0.4l-0.8-1.2l-0.4-0.4c-0.4-0.8-1.2-1.6-2-2.4c-20.8-24.4-33.6-55.2-35.2-89.2c5.2,7.2,11.6,14.8,18.8,21.6
				c14.4,14,32,26.4,52.4,35.2c2.8,1.2,6,0.8,8.4-1.2c9.6-8,20.4-14,32-18.4c11.2-4,23.6-6.4,36-6.4c12.4,0,24.8,2.4,36,6.4
				c11.6,4,22.4,10.4,32.4,17.6c2.8,2.4,6,2.4,8.8,1.2c20.4-8.8,38-21.2,52.4-35.2c7.2-6.8,13.2-14,18.8-21.6
				C335.6,270.8,328.4,294,316.8,314z M44.4,224.4h286.8c-6.4,11.6-14.8,22.8-25.6,33.2c-12.4,11.6-27.2,22.4-43.6,30
				c-10-7.6-20.8-13.6-32.8-18c-13.2-4.8-27.2-7.2-41.6-7.2c-14.4,0-28.4,2.4-41.2,7.2c-12,4.4-22.8,10.4-32.8,18
				c-16.8-7.6-31.6-18-43.6-30C59.2,247.2,50.8,235.6,44.4,224.4z M345.2,208.4c-2.4,0-32.4,0-313.6,0c-4.4,0-8.8-2-11.6-4.8
				c-2.8-3.2-4.8-7.2-4.8-11.6c0-4.8,2-8.8,4.8-11.6c3.2-2.8,7.2-4.8,11.6-4.8H344c4.4,0,8.4,2,11.6,4.8c2.8,3.2,4.8,7.2,4.8,11.6
				c0,4.8-2,8.8-4.8,11.6l-0.4,0.4C352.4,206.4,349.2,208,345.2,208.4z M384,261.6c-5.2,5.6-12.8,8.8-20.8,8.8
				c-3.2,0-6.4-0.8-9.2-1.6c-1.6-0.4-3.2-0.8-4.4-1.6c1.6-8.4,2.4-16.4,2.4-24.4c0-0.289,0-2.12,0-2.8c0,0.4,0-16,0-17.2
				c6.8-1.6,12.8-5.6,16.8-10.4c13.6,2.8,24,14.4,24,28.4C392.8,248.8,389.2,256.4,384,261.6z"/>
		</g>
	</g>
</g>
<g>
</g>
<g>
</g>
<g>
</g>
<g>
</g>
<g>
</g>
<g>
</g>
<g>
</g>
<g>
</g>
<g>
</g>
<g>
</g>
<g>
</g>
<g>
</g>
<g>
</g>
<g>
</g>
<g>
</g>
</svg>
