<svg height="512pt" viewBox="-14 0 512 512.00135" width="512pt" xmlns="http://www.w3.org/2000/svg"><path d="m404.105469 417.601562h-21.304688c25.84375-41.742187 28.960938-92.09375 11.828125-135.253906l16.300782-12.582031h60.378906c4.175781 0 7.558594-3.382813 7.558594-7.558594 0-4.171875-3.382813-7.554687-7.558594-7.554687h-40.792969l49.945313-38.550782c3.304687-2.550781 3.914062-7.296874 1.363281-10.601562-2.546875-3.308594-7.296875-3.914062-10.601563-1.367188l-29.488281 22.761719 4.101563-14.753906c1.117187-4.019531-1.234376-8.1875-5.257813-9.304687-4.019531-1.121094-8.191406 1.234374-9.304687 5.257812l-9.515626 34.21875-33.585937 25.921875c-11.792969-22.574219-29.136719-41.769531-50.101563-55.792969 24.777344-23.230468 39.078126-55.757812 38.78125-90.890625-1.089843-100.460937-118.304687-158.660156-198.828124-94.917969-3.273438 2.59375-3.824219 7.347657-1.234376 10.621094 2.589844 3.269532 7.34375 3.824219 10.617188 1.234375 69.835938-55.285156 174.332031-5.785156 174.332031 84.425781 0 31.242188-13.503906 60.777344-37.078125 81.257813-32.839844 16.617187-66.441406 21.742187-99.882812 15.222656-23.125-4.507812-38.261719-13.351562-40.8125-14.914062-42.722656-36.785157-49.960938-100.433594-16.1875-145.777344 2.496094-3.347656 1.800781-8.085937-1.546875-10.578125-3.34375-2.496094-8.082031-1.800781-10.574219 1.546875-15.859375 21.292969-24.242188 46.617187-24.242188 73.242187 0 34.0625 14.0625 66.347657 38.785157 89.527344-20.917969 13.996094-38.28125 33.171875-50.101563 55.792969l-33.585937-25.921875-9.511719-34.21875c-1.117188-4.023438-5.285156-6.378906-9.308594-5.257812-4.019531 1.117187-6.375 5.285156-5.257812 9.304687l4.101562 14.753906-29.488281-22.761719c-3.304687-2.546874-8.050781-1.9375-10.601563 1.367188-2.550781 3.304688-1.9375 8.050781 1.367188 10.601562l49.941406 38.550782h-40.789062c-4.171875 0-7.558594 3.382812-7.558594 7.554687 0 4.175781 3.386719 7.558594 7.558594 7.558594h60.378906l16.300781 12.582031c-17.167969 43.253906-13.96875 93.59375 11.828125 135.253906h-21.304687c-26.027344 0-47.199219 21.171876-47.199219 47.199219 0 26.027344 21.175781 47.199219 47.199219 47.199219h59.765625c4.175781 0 7.558594-3.382812 7.558594-7.558594 0-4.175781-3.382813-7.558594-7.558594-7.558594h-59.765625c-17.691407 0-32.082031-14.390624-32.082031-32.082031 0-17.691406 14.390624-32.082031 32.082031-32.082031h30.363281c8.300781 0 13.144531-9.402344 8.363281-16.167969-34.289062-48.582031-32.597656-113.46875 2.113281-159.804687 29.601563 20.816406 84.484376 36.207031 139.996094 27.445312 9.808594 37.101563 11.027344 83.058594-8.21875 117.042969-3.730468 6.585937 3.511719 13.917969 10.128906 10.398437 1.3125-.699218 28.113282-15.097656 42.714844-33.113281 4.722656 6.109375 10.109375 14.347657 11.503906 21.085938 1.289063 6.222656 9.269532 8.191406 13.285157 3.210937.484375-.601562 11.933593-15 18.015625-40.003906.988281-4.054688-1.5-8.144531-5.558594-9.132812-4.054688-.992188-8.140625 1.503906-9.128906 5.558593-2.203125 9.058594-5.214844 16.515625-7.964844 22.121094-6.035156-10.5625-14.109375-19.238281-15.378906-20.574219-3.601563-3.789062-9.867188-2.859375-12.226563 1.792969-3.96875 7.832031-13.070312 16.03125-22.117187 22.734375 10.339844-32.613281 8.289062-71.441406-.167969-104 14.246094-3.269531 29.246094-8.195312 44.785156-15.265625 10.804688 22.027344 16.316407 43.878906 16.367188 65.042969.015625 7.296875 8.257812 7.84375 7.578125 7.539062 4.171875-.011718 7.546875-3.402344 7.539062-7.578125-.054687-23.480469-6.089844-47.554687-17.910156-71.660156.71875-.378906 4.300781-2.265625 4.960938-2.714844 17.332031 23.101563 26.988281 51.441407 26.988281 81.515625 0 28.25-8.582031 55.347656-24.824219 78.359375-1.234375 1.746094-1.882812 3.789063-1.882812 5.910157 0 5.652343 4.597656 10.253906 10.25 10.253906h30.363281c17.691406 0 32.082031 14.390625 32.082031 32.082031s-14.390625 32.085937-32.082031 32.085937h-209.9375c-4.175781 0-7.558594 3.382813-7.558594 7.558594 0 4.171875 3.382813 7.558594 7.558594 7.558594h209.9375c26.027343 0 47.199219-21.175781 47.199219-47.203125 0-26.023437-21.171876-47.195313-47.199219-47.195313zm-116.160157-149.078124c-50.21875 9.367187-101.125-2.769532-133.136718-23.414063 13.742187-14.585937 26.472656-21.6875 29.046875-23.496094 39.808593 19.601563 90.988281 21.929688 140.089843-.332031.328126.257812.667969.503906 1.03125.722656 10.589844 6.472656 20.0625 14.195313 28.300782 22.902344-36.054688 19.441406-63.710938 23.054688-65.332032 23.617188zm0 0"/><path d="m217.863281 105.976562c0 7.804688-6.324219 14.128907-14.125 14.128907-7.804687 0-14.128906-6.324219-14.128906-14.128907 0-7.800781 6.324219-14.125 14.128906-14.125 7.800781 0 14.125 6.324219 14.125 14.125zm0 0"/><path d="m318.664062 105.976562c0 7.804688-6.324218 14.128907-14.128906 14.128907-7.800781 0-14.125-6.324219-14.125-14.128907 0-7.800781 6.324219-14.125 14.125-14.125 7.804688 0 14.128906 6.324219 14.128906 14.125zm0 0"/><path d="m197.832031 167.285156h56.703125c22.023438 0 34.503906-27.664062 13.222656-43.710937-7.136718-5.378907-16.644531-6.3125-24.820312-2.433594l-50.140625 23.785156c-11.296875 5.351563-7.457031 22.359375 5.035156 22.359375zm51.582031-32.484375c3.074219-1.460937 6.617188-1.136719 9.242188.84375 9.867188 7.4375 3.175781 16.523438-4.121094 16.523438h-41.738281zm0 0"/><path d="m70.394531 109.53125c17.878907 0 32.429688-14.550781 32.429688-32.433594 0-17.878906-14.550781-32.429687-32.429688-32.429687-17.882812 0-32.433593 14.550781-32.433593 32.429687 0 17.882813 14.550781 32.433594 32.433593 32.433594zm0-49.746094c9.542969 0 17.3125 7.765625 17.3125 17.3125s-7.769531 17.316406-17.3125 17.316406c-9.546875 0-17.316406-7.769531-17.316406-17.316406s7.769531-17.3125 17.316406-17.3125zm0 0"/><path d="m443.746094 169.808594c17.882812 0 32.429687-14.550782 32.429687-32.429688 0-17.882812-14.546875-32.429687-32.429687-32.429687-17.878906 0-32.429688 14.546875-32.429688 32.429687 0 17.878906 14.550782 32.429688 32.429688 32.429688zm0-49.742188c9.546875 0 17.3125 7.765625 17.3125 17.3125s-7.765625 17.3125-17.3125 17.3125-17.3125-7.765625-17.3125-17.3125 7.765625-17.3125 17.3125-17.3125zm0 0"/><path d="m32.429688 372.53125c-17.882813 0-32.429688 14.546875-32.429688 32.429688 0 17.882812 14.550781 32.429687 32.429688 32.429687 17.882812 0 32.429687-14.546875 32.429687-32.429687 0-17.882813-14.546875-32.429688-32.429687-32.429688zm0 49.742188c-9.546876 0-17.3125-7.765626-17.3125-17.3125 0-9.546876 7.769531-17.316407 17.3125-17.316407 9.546874 0 17.3125 7.769531 17.3125 17.316407 0 9.546874-7.765626 17.3125-17.3125 17.3125zm0 0"/><path d="m450.972656 322.96875c-17.882812 0-32.429687 14.546875-32.429687 32.429688 0 17.882812 14.546875 32.429687 32.429687 32.429687 17.882813 0 32.429688-14.546875 32.429688-32.429687 0-17.882813-14.546875-32.429688-32.429688-32.429688zm0 49.742188c-9.546875 0-17.3125-7.765626-17.3125-17.3125 0-9.546876 7.765625-17.3125 17.3125-17.3125s17.3125 7.765624 17.3125 17.3125c0 9.546874-7.765625 17.3125-17.3125 17.3125zm0 0"/></svg>