<?xml version="1.0" encoding="iso-8859-1"?>
<!-- Generator: Adobe Illustrator 19.0.0, SVG Export Plug-In . SVG Version: 6.00 Build 0)  -->
<svg version="1.1" id="Capa_1" xmlns="http://www.w3.org/2000/svg" xmlns:xlink="http://www.w3.org/1999/xlink" x="0px" y="0px"
	 viewBox="0 0 408.749 408.749" style="enable-background:new 0 0 408.749 408.749;" xml:space="preserve">
<g>
	<g>
		<g>
			<path d="M368.2,186.749l-6-3.2l18.4-36.8c7.6-15.2,8-32.4,3.2-47.2c-4.8-14.8-15.6-28-30.8-35.6l-116.4-57.6
				c-15.2-7.6-32-8-47.2-3.2c-14.8,4.8-28,15.6-35.6,30.8l-18.4,36.8l-6.4-3.2c-6.8-3.6-14.8-4-21.6-1.6c-6.4,2.4-12.4,6.8-16,13.6
				c-0.4,0.4-0.4,1.2-0.8,1.6c-3.2,6.8-3.6,14-1.2,20.8c0.4,1.2,0.8,2,1.2,3.2c-20,14.8-36.8,34-48.8,56c-12.8,23.6-20,50.8-20,79.6
				c0,46.4,18.8,88.4,49.6,118.8c30.4,30.4,72.4,49.2,118.8,49.2c46.4,0,88.4-18.8,118.8-49.2c30.4-30.4,49.2-72.4,49.2-118.8
				c2.4-0.4,4.4-0.8,6.4-1.6c6.4-2.4,12.4-6.8,16-13.6c0.4-0.4,0.4-1.2,0.8-1.6c3.2-6.8,3.6-14,1.2-20.8
				C380.2,196.349,375,190.349,368.2,186.749z M168.6,40.349c5.6-11.2,15.2-19.2,26.4-22.8c11.2-3.6,23.6-3.2,34.8,2.4l115.2,57.6
				c0.4,0.4,0.8,0.8,1.2,0.8c11.2,5.6,18.8,15.2,22.4,26c3.6,11.2,3.2,23.2-2,34.4c-0.4,0.4-0.8,0.8-0.8,1.2l-18,36.4l-183.2-91.6
				l-14.8-7.2L168.6,40.349z M341.4,240.349c0,42-16.8,80-44.4,107.6c-27.6,27.2-65.6,44.4-107.6,44.4s-80-16.8-107.6-44.4
				c-27.2-27.6-44.4-65.6-44.4-107.6c0-26,6.4-50.8,18-72c11.2-20.4,26.8-38,45.6-51.6c0.8,0.4,1.2,0.4,1.6,0.8
				c0.8,0.4,1.2,0.8,1.6,0.8l86.8,43.6l150.4,75.2C341.4,237.949,341.4,239.149,341.4,240.349z M367,216.749c0,0.4-0.4,0.8-0.4,1.2
				c-1.6,2.8-4,4.8-6.8,5.6c-2.4,0.8-4.8,0.8-7.2,0.4h-0.4c-0.4,0-0.8-0.4-1.2-0.4c-0.4,0-0.4-0.4-0.8-0.4L111,103.549
				c-0.8,0-1.2-0.4-1.6-0.8l-0.4-0.4c-0.4-0.4-0.4-0.4-0.8-0.8l-0.4-0.4c-1.2-1.2-2.4-2.8-2.8-4.4c-0.8-3.2-0.8-6.4,0.4-9.2
				c0-0.4,0.4-0.8,0.4-1.2c1.6-2.8,4-4.8,6.8-5.6s6.4-0.8,9.6,0.4l13.2,6.8l162.8,81.6l62.4,30.4c0.4,0.4,0.8,0.8,1.2,0.8
				c2.8,1.6,4.8,4,5.6,6.8C368.2,210.749,368.2,213.949,367,216.749z"/>
			<path d="M209.8,244.749c4.4,4,10.4,6.8,16.8,6.8c6.4,0,12.4-2.4,16.8-6.8c4-4.4,6.8-10.4,6.8-16.8c0-6.4-2.4-12.4-6.8-16.8
				c-4.4-4-10.4-6.8-16.8-6.8c-6.4,0-12,2.4-16.4,6.4l-0.4,0.4c-4,4.4-6.8,10.4-6.8,16.8c0,6.4,2.4,12,6.4,16.4L209.8,244.749z
				 M221,222.749l0.4-0.4c1.2-1.2,3.2-2,5.2-2c2.4,0,4.4,1.2,5.6,2.4c1.2,1.2,2,3.2,2.4,5.6c0,2.4-1.2,4.4-2.4,5.6
				c-1.6,1.6-3.6,2.4-5.6,2.4c-2.4,0-4.4-1.2-5.6-2.4l-0.4-0.4c-1.2-1.2-2-3.2-2-5.2C218.6,225.949,219.8,223.949,221,222.749z"/>
			<path d="M187.4,258.749l-32.4,8l-38,9.2c-2.8,0.4-5.2,2.8-6,6.4c-0.8,4.4,1.6,8.4,6,9.6l38,9.2l32.4,8c0.8,0.4,2,0.8,3.2,1.2
				c1.6,0.4,2.8,0.4,4.4,0.4c6.4,0,12.4-3.6,16.4-8.8c3.6-4.8,6-11.2,6-18s-2.4-13.2-6-18c-4-5.6-10-8.8-16.4-8.8
				c-1.2,0-2.8,0-4.4,0.4C189.4,257.949,188.6,258.349,187.4,258.749z M193.8,273.149c0.4-0.4,0.4-0.4,0.8-0.4c0.4,0,0.4,0,0.8,0
				c1.2,0,2.4,0.8,3.6,2.4c1.6,2,2.4,5.2,2.4,8.4c0,3.6-0.8,6.4-2.4,8.4c-0.8,1.6-2.4,2.4-3.6,2.4c-0.4,0-0.8,0-0.8,0
				c-0.4,0-0.4-0.4-0.8-0.4c-0.8-0.4-1.2-0.8-2-0.8l-32.8-8l-6.4-1.6l6.4-1.2l33.2-8.4C192.6,273.549,193.4,273.549,193.8,273.149z"
				/>
			<path d="M153.8,251.549c6.4,0,12.4-2.4,16.8-6.8c4-4.4,6.8-10.4,6.8-16.8c0-6.4-2.4-12.4-6.8-16.8c-4.4-4-10.4-6.8-16.8-6.8
				c-6.4,0-12.4,2.4-16.4,6.4l-0.4,0.4c-4,4.4-6.8,10.4-6.8,16.8c0,6.4,2.4,12.4,6.8,16.8
				C141.4,248.749,147.4,251.549,153.8,251.549z M147.8,222.749l0.4-0.4c1.2-1.2,3.2-2,5.2-2c2.4,0,4.4,1.2,5.6,2.4
				c1.6,1.2,2.4,3.2,2.4,5.6c0,2.4-1.2,4.4-2.4,5.6c-1.6,1.6-3.6,2.4-5.6,2.4c-2.4,0-4.4-1.2-5.6-2.4c-1.6-1.6-2.4-3.6-2.4-5.6
				C145.4,225.949,146.6,223.949,147.8,222.749z"/>
		</g>
	</g>
</g>
<g>
</g>
<g>
</g>
<g>
</g>
<g>
</g>
<g>
</g>
<g>
</g>
<g>
</g>
<g>
</g>
<g>
</g>
<g>
</g>
<g>
</g>
<g>
</g>
<g>
</g>
<g>
</g>
<g>
</g>
</svg>
